<svg xmlns="http://www.w3.org/2000/svg" viewBox="0.8 9.98 43.98 10.18">
  <path d="M 10.18 14.36 L 10.18 20 L 7.22 20 L 7.22 14.36 C 7.22 12.86 6.82 12.2 5.66 12.2 C 4.46 12.2 3.76 12.86 3.76 14.36 L 3.76 20 L 0.8 20 L 0.8 10.12 L 3.76 10.12 L 3.76 11.06 C 4.52 10.32 5.56 9.98 6.42 9.98 C 9.2 9.98 10.18 11.32 10.18 14.36 Z M 21.5477 15.08 L 21.5477 15.74 L 14.5077 15.74 C 14.5077 16.9 15.6877 17.72 16.6677 17.72 C 17.6277 17.72 18.5077 17.34 18.9677 16.5 L 20.9477 18.32 C 20.1477 19.4 18.9277 20.16 16.6677 20.16 C 13.4277 20.16 11.4477 18 11.4477 15.08 S 13.3677 9.98 16.4877 9.98 S 21.5477 12.12 21.5477 15.08 Z M 14.5677 13.86 L 18.4477 13.86 C 18.2877 12.92 17.6077 12.42 16.4877 12.42 C 15.4077 12.42 14.7477 13 14.5677 13.86 Z M 33.5754 10.12 L 36.5954 10.12 L 32.8354 20 L 30.8954 20 L 29.0554 15.22 C 28.4354 16.88 27.8354 18.44 27.2554 20 L 25.2954 20 L 21.5154 10.12 L 24.5554 10.12 L 26.2754 15.56 L 27.9754 10.12 L 30.1554 10.12 L 31.8554 15.58 Z M 39.7831 13.24 C 39.7831 14.42 44.7831 13.86 44.7831 16.98 C 44.7831 19.02 42.9831 20.16 40.7431 20.16 C 39.3231 20.16 37.9031 19.46 36.7831 18.34 L 38.7231 16.4 C 39.2831 17.08 40.0831 17.6 40.7431 17.66 S 41.9631 17.44 42.0631 17.14 C 42.3031 16.38 40.9231 16.34 40.5031 16.22 C 38.9231 15.74 37.0831 15.08 37.0831 13.12 C 37.0831 10.78 39.5231 9.98 40.7431 9.98 C 42.1431 9.98 43.5631 10.62 44.7031 11.78 L 42.7831 13.7 C 42.2631 13.02 41.3631 12.48 40.7431 12.48 C 40.4231 12.48 39.7831 12.6 39.7831 13.24 Z" fill="#000000"/>
</svg>